<svg width="66" height="24" viewBox="0 0 66 24" fill="none" xmlns="http://www.w3.org/2000/svg">
<line x1="62.5" y1="10" x2="62.5" y2="17" stroke="#41487F"/>
<line x1="66" y1="13.5" x2="59" y2="13.5" stroke="#41487F"/>
<path d="M10.368 6.832V18H8.128V13.248H3.344V18H1.104V6.832H3.344V11.424H8.128V6.832H10.368ZM18.1088 18.144C17.2554 18.144 16.4874 17.9573 15.8048 17.584C15.1221 17.2 14.5834 16.6613 14.1888 15.968C13.8048 15.2747 13.6128 14.4747 13.6128 13.568C13.6128 12.6613 13.8101 11.8613 14.2048 11.168C14.6101 10.4747 15.1594 9.94133 15.8528 9.568C16.5461 9.184 17.3194 8.992 18.1728 8.992C19.0261 8.992 19.7994 9.184 20.4928 9.568C21.1861 9.94133 21.7301 10.4747 22.1248 11.168C22.5301 11.8613 22.7328 12.6613 22.7328 13.568C22.7328 14.4747 22.5248 15.2747 22.1088 15.968C21.7034 16.6613 21.1488 17.2 20.4448 17.584C19.7514 17.9573 18.9728 18.144 18.1088 18.144ZM18.1088 16.192C18.5141 16.192 18.8928 16.096 19.2448 15.904C19.6074 15.7013 19.8954 15.4027 20.1088 15.008C20.3221 14.6133 20.4288 14.1333 20.4288 13.568C20.4288 12.7253 20.2048 12.08 19.7568 11.632C19.3194 11.1733 18.7808 10.944 18.1408 10.944C17.5008 10.944 16.9621 11.1733 16.5248 11.632C16.0981 12.08 15.8848 12.7253 15.8848 13.568C15.8848 14.4107 16.0928 15.0613 16.5088 15.52C16.9354 15.968 17.4688 16.192 18.1088 16.192ZM36.9839 9.008C38.0719 9.008 38.9465 9.344 39.6079 10.016C40.2799 10.6773 40.6159 11.6053 40.6159 12.8V18H38.3759V13.104C38.3759 12.4107 38.1999 11.8827 37.8479 11.52C37.4959 11.1467 37.0159 10.96 36.4079 10.96C35.7999 10.96 35.3145 11.1467 34.9519 11.52C34.5999 11.8827 34.4239 12.4107 34.4239 13.104V18H32.1839V13.104C32.1839 12.4107 32.0079 11.8827 31.6559 11.52C31.3039 11.1467 30.8239 10.96 30.2159 10.96C29.5972 10.96 29.1065 11.1467 28.7439 11.52C28.3919 11.8827 28.2159 12.4107 28.2159 13.104V18H25.9759V9.136H28.2159V10.208C28.5039 9.83467 28.8719 9.54133 29.3199 9.328C29.7785 9.11467 30.2799 9.008 30.8239 9.008C31.5172 9.008 32.1359 9.15733 32.6799 9.456C33.2239 9.744 33.6452 10.16 33.9439 10.704C34.2319 10.192 34.6479 9.78133 35.1919 9.472C35.7465 9.16267 36.3439 9.008 36.9839 9.008ZM52.5815 13.376C52.5815 13.696 52.5602 13.984 52.5175 14.24H46.0375C46.0908 14.88 46.3148 15.3813 46.7095 15.744C47.1042 16.1067 47.5895 16.288 48.1655 16.288C48.9975 16.288 49.5895 15.9307 49.9415 15.216H52.3575C52.1015 16.0693 51.6108 16.7733 50.8855 17.328C50.1602 17.872 49.2695 18.144 48.2135 18.144C47.3602 18.144 46.5922 17.9573 45.9095 17.584C45.2375 17.2 44.7095 16.6613 44.3255 15.968C43.9522 15.2747 43.7655 14.4747 43.7655 13.568C43.7655 12.6507 43.9522 11.8453 44.3255 11.152C44.6988 10.4587 45.2215 9.92533 45.8935 9.552C46.5655 9.17867 47.3388 8.992 48.2135 8.992C49.0562 8.992 49.8082 9.17333 50.4695 9.536C51.1415 9.89867 51.6588 10.416 52.0215 11.088C52.3948 11.7493 52.5815 12.512 52.5815 13.376ZM50.2615 12.736C50.2508 12.16 50.0428 11.7013 49.6375 11.36C49.2322 11.008 48.7362 10.832 48.1495 10.832C47.5948 10.832 47.1255 11.0027 46.7415 11.344C46.3682 11.6747 46.1388 12.1387 46.0535 12.736H50.2615Z" fill="#414880"/>
</svg>
