<svg width="106" height="19" viewBox="0 0 106 19" fill="none" xmlns="http://www.w3.org/2000/svg">
<path d="M98.0094 10.0644L93.7594 14.58C93.4656 14.8921 92.9906 14.8921 92.7 14.58L91.9937 13.8296C91.7 13.5175 91.7 13.0128 91.9937 12.7041L95.0062 9.50327L91.9937 6.30249C91.7 5.99038 91.7 5.48569 91.9937 5.1769L92.6969 4.41987C92.9906 4.10776 93.4656 4.10776 93.7562 4.41987L98.0062 8.9355C98.3031 9.24761 98.3031 9.75229 98.0094 10.0644ZM104.009 8.9355L99.7594 4.41987C99.4656 4.10776 98.9906 4.10776 98.7 4.41987L97.9938 5.17026C97.7 5.48237 97.7 5.98706 97.9938 6.29585L101.006 9.49663L97.9938 12.6974C97.7 13.0095 97.7 13.5142 97.9938 13.823L98.7 14.5734C98.9937 14.8855 99.4687 14.8855 99.7594 14.5734L104.009 10.0578C104.303 9.75229 104.303 9.24761 104.009 8.9355Z" fill="#FF64AE"/>
<path d="M2.926 11.446H6.146V13H0.966V3.228H2.926V11.446ZM14.6018 8.954C14.6018 9.234 14.5831 9.486 14.5458 9.71H8.87578C8.92245 10.27 9.11845 10.7087 9.46378 11.026C9.80911 11.3433 10.2338 11.502 10.7378 11.502C11.4658 11.502 11.9838 11.1893 12.2918 10.564H14.4058C14.1818 11.3107 13.7524 11.9267 13.1178 12.412C12.4831 12.888 11.7038 13.126 10.7798 13.126C10.0331 13.126 9.36111 12.9627 8.76378 12.636C8.17578 12.3 7.71378 11.8287 7.37778 11.222C7.05111 10.6153 6.88778 9.91533 6.88778 9.122C6.88778 8.31933 7.05111 7.61467 7.37778 7.008C7.70445 6.40133 8.16178 5.93467 8.74978 5.608C9.33778 5.28133 10.0144 5.118 10.7798 5.118C11.5171 5.118 12.1751 5.27667 12.7538 5.594C13.3418 5.91133 13.7944 6.364 14.1118 6.952C14.4384 7.53067 14.6018 8.198 14.6018 8.954ZM12.5718 8.394C12.5624 7.89 12.3804 7.48867 12.0258 7.19C11.6711 6.882 11.2371 6.728 10.7238 6.728C10.2384 6.728 9.82778 6.87733 9.49178 7.176C9.16511 7.46533 8.96445 7.87133 8.88978 8.394H12.5718ZM15.5284 9.094C15.5284 8.31 15.6824 7.61467 15.9904 7.008C16.3077 6.40133 16.7324 5.93467 17.2644 5.608C17.8057 5.28133 18.4077 5.118 19.0704 5.118C19.6491 5.118 20.1531 5.23467 20.5824 5.468C21.0211 5.70133 21.3711 5.99533 21.6324 6.35V5.244H23.6064V13H21.6324V11.866C21.3804 12.23 21.0304 12.5333 20.5824 12.776C20.1437 13.0093 19.6351 13.126 19.0564 13.126C18.4031 13.126 17.8057 12.958 17.2644 12.622C16.7324 12.286 16.3077 11.8147 15.9904 11.208C15.6824 10.592 15.5284 9.88733 15.5284 9.094ZM21.6324 9.122C21.6324 8.646 21.5391 8.24 21.3524 7.904C21.1657 7.55867 20.9137 7.29733 20.5964 7.12C20.2791 6.93333 19.9384 6.84 19.5744 6.84C19.2104 6.84 18.8744 6.92867 18.5664 7.106C18.2584 7.28333 18.0064 7.54467 17.8104 7.89C17.6237 8.226 17.5304 8.62733 17.5304 9.094C17.5304 9.56067 17.6237 9.97133 17.8104 10.326C18.0064 10.6713 18.2584 10.9373 18.5664 11.124C18.8837 11.3107 19.2197 11.404 19.5744 11.404C19.9384 11.404 20.2791 11.3153 20.5964 11.138C20.9137 10.9513 21.1657 10.69 21.3524 10.354C21.5391 10.0087 21.6324 9.598 21.6324 9.122ZM27.4807 6.448C27.7327 6.03733 28.0594 5.71533 28.4607 5.482C28.8714 5.24867 29.338 5.132 29.8607 5.132V7.19H29.3427C28.7267 7.19 28.26 7.33467 27.9427 7.624C27.6347 7.91333 27.4807 8.41733 27.4807 9.136V13H25.5207V5.244H27.4807V6.448ZM35.4788 5.132C36.4028 5.132 37.1495 5.426 37.7188 6.014C38.2882 6.59267 38.5728 7.40467 38.5728 8.45V13H36.6128V8.716C36.6128 8.1 36.4588 7.62867 36.1508 7.302C35.8428 6.966 35.4228 6.798 34.8908 6.798C34.3495 6.798 33.9202 6.966 33.6028 7.302C33.2948 7.62867 33.1408 8.1 33.1408 8.716V13H31.1808V5.244H33.1408V6.21C33.4022 5.874 33.7335 5.61267 34.1348 5.426C34.5455 5.23 34.9935 5.132 35.4788 5.132ZM53.4046 5.132C54.3566 5.132 55.122 5.426 55.7006 6.014C56.2886 6.59267 56.5826 7.40467 56.5826 8.45V13H54.6226V8.716C54.6226 8.10933 54.4686 7.64733 54.1606 7.33C53.8526 7.00333 53.4326 6.84 52.9006 6.84C52.3686 6.84 51.944 7.00333 51.6266 7.33C51.3186 7.64733 51.1646 8.10933 51.1646 8.716V13H49.2046V8.716C49.2046 8.10933 49.0506 7.64733 48.7426 7.33C48.4346 7.00333 48.0146 6.84 47.4826 6.84C46.9413 6.84 46.512 7.00333 46.1946 7.33C45.8866 7.64733 45.7326 8.10933 45.7326 8.716V13H43.7726V5.244H45.7326V6.182C45.9846 5.85533 46.3066 5.59867 46.6986 5.412C47.1 5.22533 47.5386 5.132 48.0146 5.132C48.6213 5.132 49.1626 5.26267 49.6386 5.524C50.1146 5.776 50.4833 6.14 50.7446 6.616C50.9966 6.168 51.3606 5.80867 51.8366 5.538C52.322 5.26733 52.8446 5.132 53.4046 5.132ZM61.8866 13.126C61.1399 13.126 60.4679 12.9627 59.8706 12.636C59.2732 12.3 58.8019 11.8287 58.4566 11.222C58.1206 10.6153 57.9526 9.91533 57.9526 9.122C57.9526 8.32867 58.1252 7.62867 58.4706 7.022C58.8252 6.41533 59.3059 5.94867 59.9126 5.622C60.5192 5.286 61.1959 5.118 61.9426 5.118C62.6892 5.118 63.3659 5.286 63.9726 5.622C64.5792 5.94867 65.0552 6.41533 65.4006 7.022C65.7552 7.62867 65.9326 8.32867 65.9326 9.122C65.9326 9.91533 65.7506 10.6153 65.3866 11.222C65.0319 11.8287 64.5466 12.3 63.9306 12.636C63.3239 12.9627 62.6426 13.126 61.8866 13.126ZM61.8866 11.418C62.2412 11.418 62.5726 11.334 62.8806 11.166C63.1979 10.9887 63.4499 10.7273 63.6366 10.382C63.8232 10.0367 63.9166 9.61667 63.9166 9.122C63.9166 8.38467 63.7206 7.82 63.3286 7.428C62.9459 7.02667 62.4746 6.826 61.9146 6.826C61.3546 6.826 60.8832 7.02667 60.5006 7.428C60.1272 7.82 59.9406 8.38467 59.9406 9.122C59.9406 9.85933 60.1226 10.4287 60.4866 10.83C60.8599 11.222 61.3266 11.418 61.8866 11.418ZM69.3303 6.448C69.5823 6.03733 69.909 5.71533 70.3103 5.482C70.721 5.24867 71.1876 5.132 71.7103 5.132V7.19H71.1923C70.5763 7.19 70.1096 7.33467 69.7923 7.624C69.4843 7.91333 69.3303 8.41733 69.3303 9.136V13H67.3703V5.244H69.3303V6.448ZM80.2405 8.954C80.2405 9.234 80.2218 9.486 80.1845 9.71H74.5145C74.5611 10.27 74.7571 10.7087 75.1025 11.026C75.4478 11.3433 75.8725 11.502 76.3765 11.502C77.1045 11.502 77.6225 11.1893 77.9305 10.564H80.0445C79.8205 11.3107 79.3911 11.9267 78.7565 12.412C78.1218 12.888 77.3425 13.126 76.4185 13.126C75.6718 13.126 74.9998 12.9627 74.4025 12.636C73.8145 12.3 73.3525 11.8287 73.0165 11.222C72.6898 10.6153 72.5265 9.91533 72.5265 9.122C72.5265 8.31933 72.6898 7.61467 73.0165 7.008C73.3431 6.40133 73.8005 5.93467 74.3885 5.608C74.9765 5.28133 75.6531 5.118 76.4185 5.118C77.1558 5.118 77.8138 5.27667 78.3925 5.594C78.9805 5.91133 79.4331 6.364 79.7505 6.952C80.0771 7.53067 80.2405 8.198 80.2405 8.954ZM78.2105 8.394C78.2011 7.89 78.0191 7.48867 77.6645 7.19C77.3098 6.882 76.8758 6.728 76.3625 6.728C75.8771 6.728 75.4665 6.87733 75.1305 7.176C74.8038 7.46533 74.6031 7.87133 74.5285 8.394H78.2105Z" fill="#FF64AE"/>
</svg>
