<svg width="179" height="52" viewBox="0 0 179 52" fill="none" xmlns="http://www.w3.org/2000/svg">
<rect x="0.5" y="0.5" width="178" height="51" rx="14.5" stroke="white"/>
<path d="M42.28 20.832V32H40.04V24.736L37.048 32H35.352L32.344 24.736V32H30.104V20.832H32.648L36.2 29.136L39.752 20.832H42.28ZM50.0306 32.144C49.1773 32.144 48.4093 31.9573 47.7266 31.584C47.044 31.2 46.5053 30.6613 46.1106 29.968C45.7266 29.2747 45.5346 28.4747 45.5346 27.568C45.5346 26.6613 45.732 25.8613 46.1266 25.168C46.532 24.4747 47.0813 23.9413 47.7746 23.568C48.468 23.184 49.2413 22.992 50.0946 22.992C50.948 22.992 51.7213 23.184 52.4146 23.568C53.108 23.9413 53.652 24.4747 54.0466 25.168C54.452 25.8613 54.6546 26.6613 54.6546 27.568C54.6546 28.4747 54.4466 29.2747 54.0306 29.968C53.6253 30.6613 53.0706 31.2 52.3666 31.584C51.6733 31.9573 50.8946 32.144 50.0306 32.144ZM50.0306 30.192C50.436 30.192 50.8146 30.096 51.1666 29.904C51.5293 29.7013 51.8173 29.4027 52.0306 29.008C52.244 28.6133 52.3506 28.1333 52.3506 27.568C52.3506 26.7253 52.1266 26.08 51.6786 25.632C51.2413 25.1733 50.7026 24.944 50.0626 24.944C49.4226 24.944 48.884 25.1733 48.4466 25.632C48.02 26.08 47.8066 26.7253 47.8066 27.568C47.8066 28.4107 48.0146 29.0613 48.4306 29.52C48.8573 29.968 49.3906 30.192 50.0306 30.192ZM60.1378 24.512C60.4258 24.0427 60.7991 23.6747 61.2578 23.408C61.7271 23.1413 62.2604 23.008 62.8578 23.008V25.36H62.2658C61.5618 25.36 61.0284 25.5253 60.6658 25.856C60.3138 26.1867 60.1378 26.7627 60.1378 27.584V32H57.8978V23.136H60.1378V24.512ZM74.2065 27.376C74.2065 27.696 74.1852 27.984 74.1425 28.24H67.6625C67.7158 28.88 67.9398 29.3813 68.3345 29.744C68.7292 30.1067 69.2145 30.288 69.7905 30.288C70.6225 30.288 71.2145 29.9307 71.5665 29.216H73.9825C73.7265 30.0693 73.2358 30.7733 72.5105 31.328C71.7852 31.872 70.8945 32.144 69.8385 32.144C68.9852 32.144 68.2172 31.9573 67.5345 31.584C66.8625 31.2 66.3345 30.6613 65.9505 29.968C65.5772 29.2747 65.3905 28.4747 65.3905 27.568C65.3905 26.6507 65.5772 25.8453 65.9505 25.152C66.3238 24.4587 66.8465 23.9253 67.5185 23.552C68.1905 23.1787 68.9638 22.992 69.8385 22.992C70.6812 22.992 71.4332 23.1733 72.0945 23.536C72.7665 23.8987 73.2838 24.416 73.6465 25.088C74.0198 25.7493 74.2065 26.512 74.2065 27.376ZM71.8865 26.736C71.8758 26.16 71.6678 25.7013 71.2625 25.36C70.8572 25.008 70.3612 24.832 69.7745 24.832C69.2198 24.832 68.7505 25.0027 68.3665 25.344C67.9932 25.6747 67.7638 26.1387 67.6785 26.736H71.8865ZM86.758 20.832C87.9313 20.832 88.9607 21.0613 89.846 21.52C90.742 21.9787 91.43 22.6347 91.91 23.488C92.4007 24.3307 92.646 25.312 92.646 26.432C92.646 27.552 92.4007 28.5333 91.91 29.376C91.43 30.208 90.742 30.8533 89.846 31.312C88.9607 31.7707 87.9313 32 86.758 32H82.854V20.832H86.758ZM86.678 30.096C87.8513 30.096 88.758 29.776 89.398 29.136C90.038 28.496 90.358 27.5947 90.358 26.432C90.358 25.2693 90.038 24.3627 89.398 23.712C88.758 23.0507 87.8513 22.72 86.678 22.72H85.094V30.096H86.678ZM104.163 27.376C104.163 27.696 104.141 27.984 104.099 28.24H97.6187C97.6721 28.88 97.8961 29.3813 98.2907 29.744C98.6854 30.1067 99.1707 30.288 99.7467 30.288C100.579 30.288 101.171 29.9307 101.523 29.216H103.939C103.683 30.0693 103.192 30.7733 102.467 31.328C101.741 31.872 100.851 32.144 99.7947 32.144C98.9414 32.144 98.1734 31.9573 97.4907 31.584C96.8187 31.2 96.2907 30.6613 95.9067 29.968C95.5334 29.2747 95.3467 28.4747 95.3467 27.568C95.3467 26.6507 95.5334 25.8453 95.9067 25.152C96.2801 24.4587 96.8027 23.9253 97.4747 23.552C98.1467 23.1787 98.9201 22.992 99.7947 22.992C100.637 22.992 101.389 23.1733 102.051 23.536C102.723 23.8987 103.24 24.416 103.603 25.088C103.976 25.7493 104.163 26.512 104.163 27.376ZM101.843 26.736C101.832 26.16 101.624 25.7013 101.219 25.36C100.813 25.008 100.317 24.832 99.7307 24.832C99.1761 24.832 98.7067 25.0027 98.3227 25.344C97.9494 25.6747 97.7201 26.1387 97.6347 26.736H101.843ZM110.006 24.976V29.264C110.006 29.5627 110.075 29.7813 110.214 29.92C110.363 30.048 110.608 30.112 110.95 30.112H111.99V32H110.582C108.694 32 107.75 31.0827 107.75 29.248V24.976H106.694V23.136H107.75V20.944H110.006V23.136H111.99V24.976H110.006ZM114.625 27.536C114.625 26.64 114.801 25.8453 115.153 25.152C115.516 24.4587 116.001 23.9253 116.609 23.552C117.228 23.1787 117.916 22.992 118.673 22.992C119.334 22.992 119.91 23.1253 120.401 23.392C120.902 23.6587 121.302 23.9947 121.601 24.4V23.136H123.857V32H121.601V30.704C121.313 31.12 120.913 31.4667 120.401 31.744C119.9 32.0107 119.318 32.144 118.657 32.144C117.91 32.144 117.228 31.952 116.609 31.568C116.001 31.184 115.516 30.6453 115.153 29.952C114.801 29.248 114.625 28.4427 114.625 27.536ZM121.601 27.568C121.601 27.024 121.494 26.56 121.281 26.176C121.068 25.7813 120.78 25.4827 120.417 25.28C120.054 25.0667 119.665 24.96 119.249 24.96C118.833 24.96 118.449 25.0613 118.097 25.264C117.745 25.4667 117.457 25.7653 117.233 26.16C117.02 26.544 116.913 27.0027 116.913 27.536C116.913 28.0693 117.02 28.5387 117.233 28.944C117.457 29.3387 117.745 29.6427 118.097 29.856C118.46 30.0693 118.844 30.176 119.249 30.176C119.665 30.176 120.054 30.0747 120.417 29.872C120.78 29.6587 121.068 29.36 121.281 28.976C121.494 28.5813 121.601 28.112 121.601 27.568ZM128.781 22.08C128.386 22.08 128.055 21.9573 127.789 21.712C127.533 21.456 127.405 21.1413 127.405 20.768C127.405 20.3947 127.533 20.0853 127.789 19.84C128.055 19.584 128.386 19.456 128.781 19.456C129.175 19.456 129.501 19.584 129.757 19.84C130.023 20.0853 130.157 20.3947 130.157 20.768C130.157 21.1413 130.023 21.456 129.757 21.712C129.501 21.9573 129.175 22.08 128.781 22.08ZM129.885 23.136V32H127.645V23.136H129.885ZM135.938 20.16V32H133.698V20.16H135.938ZM143.143 32.144C142.418 32.144 141.767 32.016 141.191 31.76C140.615 31.4933 140.156 31.136 139.815 30.688C139.484 30.24 139.303 29.744 139.271 29.2H141.527C141.57 29.5413 141.735 29.824 142.023 30.048C142.322 30.272 142.69 30.384 143.127 30.384C143.554 30.384 143.884 30.2987 144.119 30.128C144.364 29.9573 144.487 29.7387 144.487 29.472C144.487 29.184 144.338 28.9707 144.039 28.832C143.751 28.6827 143.287 28.5227 142.647 28.352C141.986 28.192 141.442 28.0267 141.015 27.856C140.599 27.6853 140.236 27.424 139.927 27.072C139.628 26.72 139.479 26.2453 139.479 25.648C139.479 25.1573 139.618 24.7093 139.895 24.304C140.183 23.8987 140.588 23.5787 141.111 23.344C141.644 23.1093 142.268 22.992 142.983 22.992C144.039 22.992 144.882 23.2587 145.511 23.792C146.14 24.3147 146.487 25.024 146.551 25.92H144.407C144.375 25.568 144.226 25.2907 143.959 25.088C143.703 24.8747 143.356 24.768 142.919 24.768C142.514 24.768 142.199 24.8427 141.975 24.992C141.762 25.1413 141.655 25.3493 141.655 25.616C141.655 25.9147 141.804 26.144 142.103 26.304C142.402 26.4533 142.866 26.608 143.495 26.768C144.135 26.928 144.663 27.0933 145.079 27.264C145.495 27.4347 145.852 27.7013 146.151 28.064C146.46 28.416 146.62 28.8853 146.631 29.472C146.631 29.984 146.487 30.4427 146.199 30.848C145.922 31.2533 145.516 31.5733 144.983 31.808C144.46 32.032 143.847 32.144 143.143 32.144Z" fill="white"/>
</svg>
